<svg width="32" height="32" viewBox="0 0 32 32" fill="none" xmlns="http://www.w3.org/2000/svg">
<g id="vuesax/linear/3dcube">
<g id="3dcube">
<path id="Vector" d="M17.2267 3.01337L25.9067 7.69337C26.92 8.24004 26.92 9.80004 25.9067 10.3467L17.2267 15.0267C16.4534 15.44 15.5467 15.44 14.7734 15.0267L6.09337 10.3467C5.08004 9.80004 5.08004 8.24004 6.09337 7.69337L14.7734 3.01337C15.5467 2.60004 16.4534 2.60004 17.2267 3.01337Z" stroke="#292D32" stroke-width="2" stroke-linecap="round" stroke-linejoin="round"/>
<path id="Vector_2" d="M4.81329 13.5067L12.88 17.5467C13.88 18.0534 14.52 19.08 14.52 20.2V27.8267C14.52 28.9334 13.36 29.64 12.3733 29.1467L4.30663 25.1067C3.30663 24.6 2.66663 23.5734 2.66663 22.4534V14.8267C2.66663 13.72 3.82663 13.0134 4.81329 13.5067Z" stroke="#292D32" stroke-width="2" stroke-linecap="round" stroke-linejoin="round"/>
<path id="Vector_3" d="M27.1866 13.5067L19.12 17.5467C18.12 18.0534 17.48 19.08 17.48 20.2V27.8267C17.48 28.9334 18.64 29.64 19.6266 29.1467L27.6933 25.1067C28.6933 24.6 29.3333 23.5734 29.3333 22.4534V14.8267C29.3333 13.72 28.1733 13.0134 27.1866 13.5067Z" stroke="#292D32" stroke-width="2" stroke-linecap="round" stroke-linejoin="round"/>
</g>
</g>
</svg>
