<svg width="32" height="32" viewBox="0 0 32 32" fill="none" xmlns="http://www.w3.org/2000/svg">
<g id="vuesax/linear/clipboard-text">
<g id="clipboard-text">
<path id="Vector" d="M10.6666 16.2667H20" stroke="#292D32" stroke-width="2" stroke-miterlimit="10" stroke-linecap="round" stroke-linejoin="round"/>
<path id="Vector_2" d="M10.6666 21.6H16.5066" stroke="#292D32" stroke-width="2" stroke-miterlimit="10" stroke-linecap="round" stroke-linejoin="round"/>
<path id="Vector_3" d="M13.3333 7.99996H18.6666C21.3333 7.99996 21.3333 6.66663 21.3333 5.33329C21.3333 2.66663 20 2.66663 18.6666 2.66663H13.3333C12 2.66663 10.6666 2.66663 10.6666 5.33329C10.6666 7.99996 12 7.99996 13.3333 7.99996Z" stroke="#292D32" stroke-width="2" stroke-miterlimit="10" stroke-linecap="round" stroke-linejoin="round"/>
<path id="Vector_4" d="M21.3333 5.35999C25.7733 5.59999 28 7.23999 28 13.3333V21.3333C28 26.6667 26.6667 29.3333 20 29.3333H12C5.33333 29.3333 4 26.6667 4 21.3333V13.3333C4 7.25332 6.22667 5.59999 10.6667 5.35999" stroke="#292D32" stroke-width="2" stroke-miterlimit="10" stroke-linecap="round" stroke-linejoin="round"/>
</g>
</g>
</svg>
